<?xml version="1.0" standalone="no"?>
<!DOCTYPE svg PUBLIC "-//W3C//DTD SVG 20010904//EN"
 "http://www.w3.org/TR/2001/REC-SVG-20010904/DTD/svg10.dtd">
<svg version="1.0" xmlns="http://www.w3.org/2000/svg"
 width="362.000000pt" height="473.000000pt" viewBox="0 0 362.000000 473.000000"
 preserveAspectRatio="xMidYMid meet">

<g transform="translate(0.000000,473.000000) scale(0.100000,-0.100000)"
fill="#000000" stroke="none">
<path d="M1692 4068 c-46 -27 -81 -55 -79 -61 8 -19 139 -209 142 -205 7 7
125 267 125 275 0 13 -60 43 -83 42 -12 0 -59 -23 -105 -51z"/>
<path d="M1891 3998 c-108 -237 -111 -242 -125 -223 -12 16 -13 16 -19 1 -4
-9 -4 -23 -1 -31 7 -17 24 -20 24 -5 0 29 31 -11 184 -235 92 -135 170 -245
174 -245 8 0 286 510 281 515 -2 1 -98 58 -214 125 -115 67 -225 131 -243 142
l-32 20 -29 -64z"/>
<path d="M1115 3732 l-440 -257 0 -63 0 -62 275 -335 c151 -184 277 -332 281
-327 10 9 499 1057 499 1068 0 15 -154 234 -164 234 -6 -1 -209 -117 -451
-258z"/>
<path d="M2301 3485 c-79 -146 -147 -265 -151 -265 -5 0 -11 6 -14 13 -5 10
-7 10 -12 0 -3 -7 -9 -13 -14 -13 -4 0 -76 100 -159 223 -171 251 -188 274
-194 267 -17 -18 -498 -1064 -494 -1073 7 -16 307 -381 315 -384 4 -2 124 212
266 475 143 262 261 479 263 482 3 3 9 -3 15 -13 9 -17 11 -17 22 -2 10 13 27
-7 113 -132 56 -81 185 -268 286 -415 l184 -266 101 187 102 188 -2 358 -3
359 -235 138 c-129 76 -237 138 -240 138 -3 0 -70 -120 -149 -265z"/>
<path d="M670 2725 l1 -570 123 -71 124 -71 143 306 c78 168 144 308 146 310
1 2 9 -2 18 -9 12 -10 16 -9 21 5 9 23 -14 45 -26 25 -6 -10 -12 -11 -18 -5
-5 6 -120 147 -257 315 -136 168 -254 312 -262 320 -11 12 -13 -77 -13 -555z"/>
<path d="M2097 3108 c-155 -277 -487 -894 -485 -900 6 -16 450 -548 457 -548
5 0 93 49 196 109 l187 110 124 227 c68 125 124 232 124 237 0 8 -539 797
-560 820 -4 5 -24 -20 -43 -55z"/>
<path d="M2851 2532 c-100 -184 -101 -185 -117 -171 -11 9 -15 8 -20 -4 -9
-25 5 -40 23 -25 12 10 17 9 23 -2 24 -42 127 -184 135 -187 33 -10 35 12 33
270 l-3 257 -74 -138z"/>
<path d="M1106 2322 c-71 -152 -135 -289 -142 -303 -13 -26 -13 -26 170 -132
101 -59 185 -107 188 -107 3 0 58 97 122 214 l117 215 -158 195 c-87 107 -160
195 -163 195 -3 1 -63 -124 -134 -277z"/>
<path d="M2668 2198 c-128 -236 -151 -281 -142 -276 117 68 330 191 331 193 4
2 -122 184 -128 185 -3 0 -31 -46 -61 -102z"/>
<path d="M1575 2228 c-10 -26 2 -55 17 -40 8 8 8 18 1 34 -10 21 -12 21 -18 6z"/>
<path d="M1513 2037 c-39 -72 -89 -166 -112 -207 l-40 -75 209 -123 c115 -67
219 -122 230 -122 31 0 231 120 223 134 -14 22 -425 521 -431 523 -4 2 -39
-57 -79 -130z"/>
<path d="M720 701 c0 -175 -2 -200 -16 -205 -36 -14 -54 3 -54 50 l0 44 -40 0
-40 0 0 -55 c0 -46 4 -60 25 -80 20 -21 34 -25 85 -25 60 0 97 11 112 34 4 6
8 107 8 224 l0 212 -40 0 -40 0 0 -199z"/>
<path d="M2122 884 c-20 -14 -22 -23 -22 -113 0 -117 5 -124 94 -131 l61 -5 3
-67 c3 -65 2 -68 -23 -74 -40 -10 -55 1 -55 41 0 34 -1 35 -40 35 l-40 0 0
-47 c0 -27 4 -53 8 -59 15 -23 53 -34 117 -34 57 0 69 3 91 25 25 25 26 30 22
121 -4 115 -11 124 -100 124 l-59 0 3 68 3 67 35 0 c33 0 35 -2 38 -37 3 -37
4 -38 44 -38 l40 0 -4 56 c-3 40 -10 61 -23 70 -27 20 -164 19 -193 -2z"/>
<path d="M945 788 c-11 -6 -23 -16 -27 -22 -14 -20 -9 -290 5 -310 16 -22 87
-32 116 -17 14 8 21 8 21 1 0 -5 18 -10 40 -10 l40 0 0 185 0 185 -40 0 c-30
0 -40 -4 -40 -16 0 -14 -2 -14 -22 0 -26 19 -65 20 -93 4z m115 -173 c0 -113
0 -115 -24 -121 -14 -3 -30 -3 -35 1 -7 4 -11 51 -11 121 l0 114 35 0 35 0 0
-115z"/>
<path d="M1257 793 c-4 -3 -7 -87 -7 -185 l0 -178 40 0 39 0 3 148 3 147 35 0
35 0 3 -147 3 -148 39 0 40 0 0 153 c0 101 -4 160 -13 177 -16 32 -69 48 -111
32 -20 -8 -32 -9 -34 -2 -4 11 -65 14 -75 3z"/>
<path d="M1632 790 c-34 -14 -42 -50 -42 -186 0 -119 1 -126 25 -149 26 -27
72 -33 106 -15 13 7 19 7 19 0 0 -5 18 -10 40 -10 l40 0 0 185 0 185 -35 0
c-25 0 -35 -4 -35 -16 0 -14 -2 -14 -22 0 -25 18 -61 20 -96 6z m108 -174 c0
-70 -4 -117 -11 -121 -5 -4 -21 -4 -35 -1 -24 6 -24 8 -24 121 l0 115 35 0 35
0 0 -114z"/>
<path d="M2483 790 c-36 -15 -43 -43 -43 -180 0 -127 1 -132 26 -156 24 -24
30 -26 105 -22 109 5 109 4 109 183 0 131 -2 143 -21 161 -23 21 -138 31 -176
14z m112 -175 l0 -120 -35 0 -35 0 -3 109 c-1 61 0 116 3 123 3 9 17 13 37 11
l33 -3 0 -120z"/>
<path d="M2780 770 c0 -30 1 -30 55 -30 35 0 55 -4 55 -12 0 -6 -27 -62 -60
-124 -36 -67 -60 -125 -60 -143 l0 -31 110 0 110 0 0 30 0 30 -65 0 c-36 0
-65 4 -65 8 0 5 27 59 60 120 42 76 60 121 60 146 l0 36 -100 0 -100 0 0 -30z"/>
</g>
</svg>
